<svg xmlns="http://www.w3.org/2000/svg" xmlns:xlink="http://www.w3.org/1999/xlink" width="65pt" height="65pt" version="1.1" viewBox="0 0 65 65"><defs><linearGradient id="linear0" x1="256" x2="256" y1="26" y2="482.741" gradientTransform="matrix(0.126953,0,0,0.126953,0,0)" gradientUnits="userSpaceOnUse"><stop offset="0" style="stop-color:#00efd1;stop-opacity:1"/><stop offset="1" style="stop-color:#00acea;stop-opacity:1"/></linearGradient><linearGradient id="linear1" x1="256" x2="256" y1="26" y2="482.741" gradientTransform="matrix(0.126953,0,0,0.126953,0,0)" gradientUnits="userSpaceOnUse"><stop offset="0" style="stop-color:#00efd1;stop-opacity:1"/><stop offset="1" style="stop-color:#00acea;stop-opacity:1"/></linearGradient><linearGradient id="linear2" x1="256" x2="256" y1="26" y2="482.741" gradientTransform="matrix(0.126953,0,0,0.126953,0,0)" gradientUnits="userSpaceOnUse"><stop offset="0" style="stop-color:#00efd1;stop-opacity:1"/><stop offset="1" style="stop-color:#00acea;stop-opacity:1"/></linearGradient></defs><g id="surface1"><path style="stroke:none;fill-rule:nonzero;fill:url(#linear0)" d="M 59.910156 27.476562 L 54.699219 26.972656 C 54.144531 24.753906 53.25 22.632812 52.054688 20.683594 L 55.382812 16.667969 C 55.714844 16.265625 55.691406 15.679688 55.324219 15.308594 L 49.738281 9.648438 C 49.367188 9.273438 48.773438 9.242188 48.367188 9.578125 L 44.347656 12.910156 C 42.394531 11.71875 40.277344 10.824219 38.0625 10.253906 L 37.558594 5.007812 C 37.511719 4.480469 37.078125 4.074219 36.546875 4.0625 L 28.523438 4.0625 C 27.996094 4.074219 27.558594 4.480469 27.511719 5.007812 L 27.007812 10.242188 C 24.789062 10.800781 22.667969 11.699219 20.71875 12.894531 L 16.703125 9.574219 C 16.300781 9.242188 15.707031 9.269531 15.339844 9.640625 L 9.679688 15.300781 C 9.308594 15.671875 9.28125 16.265625 9.613281 16.667969 L 12.945312 20.691406 C 11.753906 22.640625 10.859375 24.757812 10.289062 26.972656 L 5.089844 27.476562 C 4.570312 27.527344 4.179688 27.96875 4.1875 28.488281 L 4.1875 36.511719 C 4.179688 37.03125 4.570312 37.472656 5.089844 37.523438 L 10.300781 38.027344 C 10.855469 40.246094 11.75 42.367188 12.945312 44.316406 L 9.617188 48.332031 C 9.28125 48.734375 9.308594 49.324219 9.679688 49.695312 L 15.339844 55.355469 C 15.710938 55.726562 16.300781 55.753906 16.703125 55.421875 L 20.726562 52.089844 C 22.675781 53.28125 24.796875 54.175781 27.011719 54.742188 L 27.511719 59.992188 C 27.558594 60.519531 27.996094 60.925781 28.523438 60.9375 L 36.546875 60.9375 C 37.078125 60.925781 37.511719 60.519531 37.558594 59.992188 L 38.0625 54.757812 C 40.28125 54.199219 42.402344 53.300781 44.351562 52.105469 L 48.367188 55.425781 C 48.769531 55.757812 49.363281 55.730469 49.734375 55.359375 L 55.394531 49.699219 C 55.765625 49.328125 55.792969 48.734375 55.457031 48.332031 L 52.125 44.308594 C 53.316406 42.359375 54.210938 40.242188 54.78125 38.027344 L 59.914062 37.523438 C 60.429688 37.472656 60.820312 37.03125 60.8125 36.511719 L 60.8125 28.488281 C 60.820312 27.96875 60.429688 27.527344 59.910156 27.476562 Z M 58.78125 35.589844 L 53.839844 36.074219 C 53.402344 36.117188 53.046875 36.441406 52.957031 36.871094 C 52.40625 39.351562 51.410156 41.714844 50.019531 43.84375 C 49.78125 44.214844 49.808594 44.699219 50.09375 45.042969 L 53.300781 48.914062 L 48.949219 53.269531 L 45.078125 50.058594 C 44.730469 49.773438 44.238281 49.746094 43.867188 49.996094 C 41.75 51.398438 39.386719 52.390625 36.90625 52.929688 C 36.472656 53.035156 36.152344 53.40625 36.109375 53.851562 L 35.625 58.90625 L 29.445312 58.90625 L 28.960938 53.851562 C 28.917969 53.410156 28.597656 53.042969 28.164062 52.945312 C 25.683594 52.390625 23.320312 51.390625 21.191406 49.996094 C 20.820312 49.753906 20.335938 49.78125 19.996094 50.0625 L 16.121094 53.269531 L 11.769531 48.914062 L 14.976562 45.042969 C 15.261719 44.695312 15.289062 44.203125 15.039062 43.832031 C 13.636719 41.714844 12.644531 39.351562 12.105469 36.871094 C 12.023438 36.441406 11.667969 36.117188 11.230469 36.074219 L 6.21875 35.589844 L 6.21875 29.410156 L 11.230469 28.925781 C 11.667969 28.882812 12.027344 28.558594 12.117188 28.128906 C 12.664062 25.648438 13.660156 23.285156 15.050781 21.15625 C 15.292969 20.785156 15.261719 20.300781 14.976562 19.957031 L 11.769531 16.085938 L 16.121094 11.730469 L 19.996094 14.941406 C 20.339844 15.226562 20.832031 15.25 21.207031 15.003906 C 23.324219 13.601562 25.683594 12.605469 28.164062 12.070312 C 28.601562 11.964844 28.921875 11.59375 28.960938 11.148438 L 29.445312 6.09375 L 35.625 6.09375 L 36.109375 11.148438 C 36.152344 11.589844 36.472656 11.957031 36.90625 12.054688 C 39.390625 12.609375 41.75 13.609375 43.878906 15.003906 C 44.25 15.246094 44.734375 15.21875 45.078125 14.9375 L 48.945312 11.734375 L 53.234375 16.078125 L 50.023438 19.957031 C 49.738281 20.304688 49.710938 20.796875 49.960938 21.167969 C 51.363281 23.285156 52.355469 25.648438 52.894531 28.128906 C 52.976562 28.558594 53.332031 28.882812 53.769531 28.925781 L 58.78125 29.410156 Z M 58.78125 35.589844"/><path style="stroke:none;fill-rule:nonzero;fill:url(#linear1)" d="M 32.5 15.9375 C 23.351562 15.9375 15.9375 23.351562 15.9375 32.5 C 15.9375 41.648438 23.351562 49.0625 32.5 49.0625 C 41.648438 49.0625 49.0625 41.648438 49.0625 32.5 C 49.050781 23.355469 41.644531 15.949219 32.5 15.9375 Z M 32.5 47.03125 C 24.476562 47.03125 17.96875 40.523438 17.96875 32.5 C 17.96875 24.476562 24.476562 17.96875 32.5 17.96875 C 40.523438 17.96875 47.03125 24.476562 47.03125 32.5 C 47.023438 40.523438 40.523438 47.023438 32.5 47.03125 Z M 32.5 47.03125"/><path style="stroke:none;fill-rule:nonzero;fill:url(#linear2)" d="M 39.070312 28.691406 C 39.066406 26.019531 36.894531 23.859375 34.222656 23.867188 L 33.769531 23.867188 L 33.769531 22.21875 C 33.769531 21.65625 33.316406 21.203125 32.753906 21.203125 C 32.191406 21.203125 31.738281 21.65625 31.738281 22.21875 L 31.738281 23.867188 L 30.46875 23.867188 L 30.46875 22.21875 C 30.46875 21.65625 30.015625 21.203125 29.453125 21.203125 C 28.890625 21.203125 28.4375 21.65625 28.4375 22.21875 L 28.4375 23.867188 L 26.945312 23.867188 C 26.386719 23.867188 25.929688 24.320312 25.929688 24.882812 C 25.929688 25.445312 26.386719 25.898438 26.945312 25.898438 L 27.804688 25.898438 L 27.804688 39.101562 L 26.945312 39.101562 C 26.386719 39.101562 25.929688 39.554688 25.929688 40.117188 C 25.929688 40.679688 26.386719 41.132812 26.945312 41.132812 L 28.4375 41.132812 L 28.4375 42.78125 C 28.4375 43.34375 28.890625 43.796875 29.453125 43.796875 C 30.015625 43.796875 30.46875 43.34375 30.46875 42.78125 L 30.46875 41.132812 L 31.738281 41.132812 L 31.738281 42.78125 C 31.738281 43.34375 32.191406 43.796875 32.753906 43.796875 C 33.316406 43.796875 33.769531 43.34375 33.769531 42.78125 L 33.769531 41.132812 L 34.222656 41.132812 C 36.292969 41.144531 38.136719 39.835938 38.808594 37.882812 C 39.480469 35.925781 38.828125 33.757812 37.1875 32.5 C 38.371094 31.59375 39.070312 30.183594 39.070312 28.691406 Z M 37.039062 36.308594 C 37.035156 37.050781 36.738281 37.765625 36.210938 38.289062 C 35.683594 38.8125 34.96875 39.105469 34.222656 39.101562 L 29.835938 39.101562 L 29.835938 33.515625 L 34.222656 33.515625 C 34.96875 33.511719 35.683594 33.804688 36.210938 34.328125 C 36.738281 34.851562 37.035156 35.566406 37.039062 36.308594 Z M 29.835938 31.484375 L 29.835938 25.898438 L 34.222656 25.898438 C 35.765625 25.898438 37.015625 27.148438 37.015625 28.691406 C 37.015625 30.234375 35.765625 31.484375 34.222656 31.484375 Z M 29.835938 31.484375"/></g></svg>