<?xml version="1.0" encoding="UTF-8"?>
<svg xmlns="http://www.w3.org/2000/svg" xmlns:xlink="http://www.w3.org/1999/xlink" width="20pt" height="19pt" viewBox="0 0 20 19" version="1.1">
<g id="surface1">
<path style=" stroke:none;fill-rule:nonzero;fill:rgb(26.666667%,76.862745%,63.137255%);fill-opacity:1;" d="M 19.09375 8.40625 L 6.382812 8.40625 C 5.945312 8.40625 5.589844 8.078125 5.589844 7.664062 L 5.589844 6.023438 C 5.589844 5.617188 5.945312 5.28125 6.382812 5.28125 L 19.09375 5.28125 C 19.527344 5.28125 19.882812 5.617188 19.882812 6.023438 L 19.882812 7.664062 C 19.882812 8.078125 19.527344 8.40625 19.09375 8.40625 Z M 19.09375 8.40625 "/>
<path style=" stroke:none;fill-rule:nonzero;fill:rgb(26.666667%,76.862745%,63.137255%);fill-opacity:1;" d="M 2.023438 5.058594 C 1.894531 5.058594 1.761719 5.074219 1.640625 5.097656 C 1.578125 5.109375 1.519531 5.121094 1.453125 5.140625 C 1.335938 5.175781 1.226562 5.21875 1.113281 5.273438 C 0.953125 5.355469 0.804688 5.460938 0.679688 5.582031 C 0.546875 5.703125 0.433594 5.839844 0.347656 5.996094 C 0.316406 6.046875 0.292969 6.097656 0.269531 6.152344 C 0.21875 6.253906 0.179688 6.367188 0.15625 6.484375 C 0.132812 6.601562 0.117188 6.722656 0.117188 6.84375 C 0.117188 6.96875 0.132812 7.089844 0.15625 7.207031 C 0.179688 7.304688 0.210938 7.402344 0.25 7.496094 C 0.277344 7.5625 0.3125 7.632812 0.347656 7.695312 C 0.410156 7.804688 0.484375 7.898438 0.566406 7.992188 C 0.71875 8.164062 0.902344 8.3125 1.113281 8.417969 C 1.179688 8.453125 1.253906 8.480469 1.328125 8.507812 C 1.429688 8.546875 1.53125 8.574219 1.640625 8.59375 C 1.761719 8.617188 1.894531 8.632812 2.023438 8.632812 C 3.078125 8.632812 3.929688 7.832031 3.929688 6.84375 C 3.929688 5.859375 3.078125 5.058594 2.023438 5.058594 Z M 2.023438 5.058594 "/>
<path style=" stroke:none;fill-rule:nonzero;fill:rgb(89.803922%,38.823529%,32.54902%);fill-opacity:1;" d="M 3.929688 11.90625 C 3.929688 12.890625 3.078125 13.691406 2.023438 13.691406 C 0.972656 13.691406 0.117188 12.890625 0.117188 11.90625 C 0.117188 10.917969 0.972656 10.117188 2.023438 10.117188 C 3.078125 10.117188 3.929688 10.917969 3.929688 11.90625 Z M 3.929688 11.90625 "/>
<path style=" stroke:none;fill-rule:nonzero;fill:rgb(89.803922%,38.823529%,32.54902%);fill-opacity:1;" d="M 19.09375 13.46875 L 6.382812 13.46875 C 5.945312 13.46875 5.589844 13.132812 5.589844 12.726562 L 5.589844 11.085938 C 5.589844 10.671875 5.945312 10.34375 6.382812 10.34375 L 19.09375 10.34375 C 19.527344 10.34375 19.882812 10.671875 19.882812 11.085938 L 19.882812 12.726562 C 19.882812 13.132812 19.527344 13.46875 19.09375 13.46875 Z M 19.09375 13.46875 "/>
<path style=" stroke:none;fill-rule:nonzero;fill:rgb(15.294118%,63.529412%,85.882353%);fill-opacity:1;" d="M 3.929688 16.960938 C 3.929688 17.949219 3.078125 18.75 2.023438 18.75 C 0.972656 18.75 0.117188 17.949219 0.117188 16.960938 C 0.117188 15.976562 0.972656 15.175781 2.023438 15.175781 C 3.078125 15.175781 3.929688 15.976562 3.929688 16.960938 Z M 3.929688 16.960938 "/>
<path style=" stroke:none;fill-rule:nonzero;fill:rgb(15.294118%,63.529412%,85.882353%);fill-opacity:1;" d="M 19.09375 18.523438 L 6.382812 18.523438 C 5.945312 18.523438 5.589844 18.195312 5.589844 17.789062 L 5.589844 16.140625 C 5.589844 15.734375 5.945312 15.398438 6.382812 15.398438 L 19.09375 15.398438 C 19.527344 15.398438 19.882812 15.734375 19.882812 16.140625 L 19.882812 17.789062 C 19.882812 18.195312 19.527344 18.523438 19.09375 18.523438 Z M 19.09375 18.523438 "/>
<path style=" stroke:none;fill-rule:nonzero;fill:rgb(98.823529%,83.137255%,38.431373%);fill-opacity:1;" d="M 3.929688 1.789062 C 3.929688 2.773438 3.078125 3.574219 2.023438 3.574219 C 0.972656 3.574219 0.117188 2.773438 0.117188 1.789062 C 0.117188 0.800781 0.972656 0 2.023438 0 C 3.078125 0 3.929688 0.800781 3.929688 1.789062 Z M 3.929688 1.789062 "/>
<path style=" stroke:none;fill-rule:nonzero;fill:rgb(98.823529%,83.137255%,38.431373%);fill-opacity:1;" d="M 19.09375 3.351562 L 6.382812 3.351562 C 5.945312 3.351562 5.589844 3.015625 5.589844 2.609375 L 5.589844 0.960938 C 5.589844 0.554688 5.945312 0.226562 6.382812 0.226562 L 19.09375 0.226562 C 19.527344 0.226562 19.882812 0.554688 19.882812 0.960938 L 19.882812 2.609375 C 19.882812 3.015625 19.527344 3.351562 19.09375 3.351562 Z M 19.09375 3.351562 "/>
</g>
</svg>
