<svg xmlns="http://www.w3.org/2000/svg" width="104" height="65" fill="none" viewBox="0 0 104 65"><rect width="6" height="48" y="9" fill="url(#paint0_linear)" rx="3"/><path fill="url(#paint1_linear)" d="M71.6875 0C53.8703 0 39.375 14.4953 39.375 32.3125C39.375 50.1297 53.8703 64.625 71.6875 64.625C89.5047 64.625 104 50.1297 104 32.3125C104 14.4953 89.5047 0 71.6875 0ZM71.6875 60.9531C55.8949 60.9531 43.0469 48.105 43.0469 32.3125C43.0469 16.5199 55.8949 3.67188 71.6875 3.67188C87.48 3.67188 100.328 16.5199 100.328 32.3125C100.328 48.105 87.48 60.9531 71.6875 60.9531Z"/><path fill="url(#paint2_linear)" d="M78.7045 30.8906C79.4901 29.7216 79.9492 28.3158 79.9492 26.8047C79.9492 23.3891 77.6053 20.5107 74.4414 19.6934V17.625C74.4414 16.611 73.6195 15.7891 72.6055 15.7891C71.5915 15.7891 70.7695 16.611 70.7695 17.625V19.4609H67.0977V17.625C67.0977 16.611 66.2757 15.7891 65.2617 15.7891C64.2477 15.7891 63.4258 16.611 63.4258 17.625V19.4609H61.5898C60.5759 19.4609 59.7539 20.2829 59.7539 21.2969C59.7539 22.3109 60.5759 23.1328 61.5898 23.1328H63.4258V41.4922H61.5898C60.5759 41.4922 59.7539 42.3141 59.7539 43.3281C59.7539 44.3421 60.5759 45.1641 61.5898 45.1641H63.4258V47C63.4258 48.014 64.2477 48.8359 65.2617 48.8359C66.2757 48.8359 67.0977 48.014 67.0977 47V45.1641H70.7695V47C70.7695 48.014 71.5915 48.8359 72.6055 48.8359C73.6195 48.8359 74.4414 48.014 74.4414 47V45.1641H76.2773C80.3267 45.1641 83.6211 41.8697 83.6211 37.8203C83.6211 34.6214 81.5643 31.8952 78.7045 30.8906ZM76.2773 26.8047C76.2773 28.8294 74.6301 30.4766 72.6055 30.4766H67.0977V23.1328H72.6055C74.6301 23.1328 76.2773 24.78 76.2773 26.8047ZM76.2773 41.4922H67.0977V34.1484H76.2773C78.302 34.1484 79.9492 35.7956 79.9492 37.8203C79.9492 39.845 78.302 41.4922 76.2773 41.4922Z"/><defs><linearGradient id="paint0_linear" x1="3" x2="3" y1="9" y2="57" gradientUnits="userSpaceOnUse"><stop stop-color="#06D0B9"/><stop offset="1" stop-color="#6B9DFF"/></linearGradient><linearGradient id="paint1_linear" x1="71.688" x2="71.688" y1="0" y2="64.625" gradientUnits="userSpaceOnUse"><stop stop-color="#06D0B9"/><stop offset="1" stop-color="#6B9DFF"/></linearGradient><linearGradient id="paint2_linear" x1="71.688" x2="71.688" y1="15.789" y2="48.836" gradientUnits="userSpaceOnUse"><stop stop-color="#06D0B9"/><stop offset="1" stop-color="#6B9DFF"/></linearGradient></defs></svg>