<svg width="104" height="65" viewBox="0 0 104 65" fill="none" xmlns="http://www.w3.org/2000/svg">
<rect y="9" width="6" height="48" rx="3" fill="url(#paint0_linear)"/>
<path d="M71.3125 0C53.4953 0 39 14.4953 39 32.3125C39 50.1297 53.4953 64.625 71.3125 64.625C89.1297 64.625 103.625 50.1297 103.625 32.3125C103.625 14.4953 89.1297 0 71.3125 0ZM71.3125 60.9531C55.5199 60.9531 42.6719 48.1051 42.6719 32.3125C42.6719 16.5199 55.5199 3.67188 71.3125 3.67188C87.1051 3.67188 99.9531 16.5199 99.9531 32.3125C99.9531 48.1051 87.1051 60.9531 71.3125 60.9531Z" fill="url(#paint1_linear)"/>
<path d="M60.2917 35.8691C59.5388 34.7935 58.7537 33.7287 57.9363 32.6747C57.1404 31.6206 56.3767 30.5666 55.6453 29.5125H59.0333C59.2915 29.9428 59.5388 30.33 59.7755 30.6741C60.0336 31.0183 60.281 31.3517 60.5176 31.6744C60.7757 31.9971 61.0231 32.3305 61.2597 32.6747C61.5179 32.9973 61.7868 33.363 62.0664 33.7717C62.6042 32.9758 63.1097 32.2767 63.5829 31.6744C64.0562 31.0506 64.5724 30.33 65.1317 29.5125H68.1971C67.8099 30.1148 67.4334 30.6741 67.0677 31.1904C66.702 31.6852 66.3364 32.1907 65.9707 32.7069C65.605 33.2017 65.2285 33.718 64.8413 34.2557C64.4756 34.772 64.0884 35.3528 63.6797 35.9981C64.0669 36.5144 64.4756 37.0737 64.9059 37.676C65.3576 38.2783 65.8093 38.8914 66.2611 39.5152C66.7128 40.1175 67.1538 40.7198 67.584 41.3221C68.0142 41.9244 68.4122 42.4837 68.7779 43H65.2608C64.6585 42.1611 64.0669 41.3867 63.4861 40.6768C62.9053 39.9669 62.3138 39.2033 61.7115 38.3859C61.1522 39.2033 60.6036 39.9669 60.0659 40.6768C59.5281 41.3867 58.9796 42.1611 58.4203 43H55.3549C56.1724 41.7739 57.0005 40.58 57.8395 39.4184C58.6784 38.2353 59.4958 37.0522 60.2917 35.8691ZM78.7352 40.1283H86.2856V43H71.6365C72.9702 41.6448 74.2608 40.3326 75.5085 39.0635C76.7776 37.7943 77.8962 36.5682 78.8642 35.3851C79.8322 34.1804 80.6066 33.0296 81.1874 31.9325C81.7897 30.814 82.0909 29.7384 82.0909 28.7059C82.0909 27.953 81.9618 27.3076 81.7037 26.7699C81.4456 26.2106 81.1229 25.7588 80.7357 25.4147C80.37 25.049 79.9613 24.7801 79.5096 24.608C79.0578 24.4359 78.6384 24.3499 78.2512 24.3499C77.4552 24.3499 76.7992 24.4897 76.2829 24.7693C75.7881 25.049 75.3902 25.3932 75.089 25.8019C74.7879 26.1891 74.5728 26.5978 74.4437 27.028C74.3361 27.4582 74.2824 27.8347 74.2824 28.1573C74.2824 28.8887 74.3899 29.5233 74.605 30.0611C74.8416 30.5988 75.1536 31.0828 75.5408 31.5131L73.7984 33.3523C73.4112 33.1156 73.0562 32.793 72.7336 32.3843C72.4324 31.954 72.1743 31.5023 71.9592 31.0291C71.744 30.5343 71.5827 30.0396 71.4752 29.5448C71.3676 29.0285 71.3138 28.566 71.3138 28.1573C71.3138 27.2969 71.4644 26.4687 71.7656 25.6728C72.0667 24.8554 72.5077 24.1348 73.0885 23.5109C73.6908 22.8871 74.4222 22.3924 75.2826 22.0267C76.1431 21.661 77.1326 21.4781 78.2512 21.4781C79.2837 21.4781 80.2194 21.661 81.0584 22.0267C81.8973 22.3924 82.6072 22.8979 83.188 23.5432C83.7903 24.167 84.2528 24.8984 84.5754 25.7373C84.9196 26.5548 85.0917 27.4152 85.0917 28.3187C85.0917 29.3727 84.9196 30.4052 84.5754 31.4163C84.2312 32.4058 83.758 33.3953 83.1557 34.3848C82.5749 35.3528 81.8973 36.31 81.1229 37.2565C80.37 38.203 79.5741 39.1603 78.7352 40.1283Z" fill="url(#paint2_linear)"/>
<defs>
<linearGradient id="paint0_linear" x1="3" y1="9" x2="3" y2="57" gradientUnits="userSpaceOnUse">
<stop stop-color="#06D0B9"/>
<stop offset="1" stop-color="#6B9DFF"/>
</linearGradient>
<linearGradient id="paint1_linear" x1="71.3125" y1="0" x2="71.3125" y2="64.625" gradientUnits="userSpaceOnUse">
<stop stop-color="#06D0B9"/>
<stop offset="1" stop-color="#6B9DFF"/>
</linearGradient>
<linearGradient id="paint2_linear" x1="71.5" y1="19" x2="71.5" y2="44.6667" gradientUnits="userSpaceOnUse">
<stop stop-color="#06D0B9"/>
<stop offset="1" stop-color="#6B9DFF"/>
</linearGradient>
</defs>
</svg>
